/* XPM */
static char *on[] = {
/* width height num_colors chars_per_pixel */
"    90    86      236            2",
/* colors */
".b s mask c none",
".. c #f8fcf8",
".# c #f8fcf0",
".a c #f8fce8",
".c c #f8f4f0",
".d c #f8f4e8",
".e c #f8f4e0",
".f c #f8ece0",
".g c #f8ecd8",
".h c #f8ecd0",
".i c #f8e4d8",
".j c #f8e4d0",
".k c #f8e4c8",
".l c #f8dcc8",
".m c #f8dcc0",
".n c #f8dcb8",
".o c #f8d4b0",
".p c #f8ccb0",
".q c #f8cca8",
".r c #f8cca0",
".s c #f8cc98",
".t c #f8c498",
".u c #f8c490",
".v c #f8bc98",
".w c #f8bc90",
".x c #f8bc88",
".y c #f8bc80",
".z c #f8b490",
".A c #f8b488",
".B c #f0ecd8",
".C c #f0e4d8",
".D c #f0e4d0",
".E c #f0e4c8",
".F c #f0dcc8",
".G c #f0dcc0",
".H c #f0d4b8",
".I c #f0d4b0",
".J c #f0ccb0",
".K c #f0cca8",
".L c #e8e4d0",
".M c #e8dcc8",
".N c #e8d4b8",
".O c #e8d4b0",
".P c #e8ccb8",
".Q c #e8ccb0",
".R c #e8cca8",
".S c #e8c4a8",
".T c #e8c4a0",
".U c #e8c498",
".V c #e8bc98",
".W c #e0c4a8",
".X c #e0c4a0",
".Y c #e0c498",
".Z c #e0bc98",
".0 c #e0bc90",
".1 c #e0b488",
".2 c #e0b480",
".3 c #e0ac88",
".4 c #e0ac80",
".5 c #d8d4c0",
".6 c #d8bca0",
".7 c #d8bc98",
".8 c #d8b498",
".9 c #d8b490",
"#. c #d8b488",
"## c #d8ac88",
"#a c #d8ac80",
"#b c #d8ac78",
"#c c #d8a478",
"#d c #d8a470",
"#e c #d89c70",
"#f c #d0c4b0",
"#g c #d0bca8",
"#h c #d0bca0",
"#i c #d0b498",
"#j c #d0b490",
"#k c #d0ac88",
"#l c #d0a480",
"#m c #d0a478",
"#n c #d0a470",
"#o c #d09c70",
"#p c #d09c68",
"#q c #d09468",
"#r c #d09460",
"#s c #c8bcb0",
"#t c #c8bca8",
"#u c #c8b498",
"#v c #c8a480",
"#w c #c89c70",
"#x c #c89468",
"#y c #c88c60",
"#z c #c88c58",
"#A c #c88458",
"#B c #c88450",
"#C c #c0ac98",
"#D c #c0ac90",
"#E c #c0a478",
"#F c #c09c78",
"#G c #c08c68",
"#H c #c08c60",
"#I c #c08458",
"#J c #c08450",
"#K c #c07850",
"#L c #c07848",
"#M c #c07048",
"#N c #b8b4a0",
"#O c #b8aca0",
"#P c #b8a490",
"#Q c #b8a488",
"#R c #b8a480",
"#S c #b89c80",
"#T c #b89470",
"#U c #b88c60",
"#V c #b87848",
"#W c #b87048",
"#X c #b87040",
"#Y c #b86840",
"#Z c #b09c80",
"#0 c #b09470",
"#1 c #b08c68",
"#2 c #b07850",
"#3 c #b06840",
"#4 c #a8a490",
"#5 c #a88c68",
"#6 c #a87858",
"#7 c #a87050",
"#8 c #a86840",
"#9 c #a08c70",
"a. c #a07050",
"a# c #a07048",
"aa c #a06038",
"ab c #989488",
"ac c #989480",
"ad c #988c80",
"ae c #988c78",
"af c #988460",
"ag c #987860",
"ah c #987858",
"ai c #986848",
"aj c #986038",
"ak c #985838",
"al c #908470",
"am c #908468",
"an c #906040",
"ao c #906038",
"ap c #905838",
"aq c #888478",
"ar c #887870",
"as c #887868",
"at c #887060",
"au c #887058",
"av c #886850",
"aw c #886848",
"ax c #885030",
"ay c #807060",
"az c #807058",
"aA c #806858",
"aB c #806850",
"aC c #805838",
"aD c #787070",
"aE c #787068",
"aF c #787060",
"aG c #786860",
"aH c #786048",
"aI c #785840",
"aJ c #785030",
"aK c #784830",
"aL c #706860",
"aM c #706058",
"aN c #706050",
"aO c #705848",
"aP c #705840",
"aQ c #705038",
"aR c #704830",
"aS c #704828",
"aT c #686060",
"aU c #686058",
"aV c #686050",
"aW c #685850",
"aX c #685848",
"aY c #685840",
"aZ c #684028",
"a0 c #605048",
"a1 c #605040",
"a2 c #604838",
"a3 c #604028",
"a4 c #585048",
"a5 c #584840",
"a6 c #584838",
"a7 c #583820",
"a8 c #504840",
"a9 c #504038",
"b. c #504030",
"b# c #503828",
"ba c #503020",
"bb c #503018",
"bc c #484840",
"bd c #484038",
"be c #484030",
"bf c #483828",
"bg c #483020",
"bh c #403838",
"bi c #403830",
"bj c #403828",
"bk c #403028",
"bl c #403020",
"bm c #383830",
"bn c #383030",
"bo c #383028",
"bp c #382820",
"bq c #382018",
"br c #382010",
"bs c #302828",
"bt c #302820",
"bu c #302818",
"bv c #302018",
"bw c #302010",
"bx c #301810",
"by c #282828",
"bz c #282820",
"bA c #282020",
"bB c #282018",
"bC c #281810",
"bD c #201818",
"bE c #201810",
"bF c #201008",
"bG c #181818",
"bH c #181810",
"bI c #181010",
"bJ c #181008",
"bK c #180808",
"bL c #100808",
"bM c #080808",
"bN c #080800",
"bO c #080000",
"bP c #000000",
/* pixels */
".b.b.b.b.b.b.b.b.b.b.b.b.b.b.b.b.b.b.b.b.b.b.b.b.b.b.b.b.b.b.b.b.b.b.b.b.b.b.b.b.b.b.b.b.b.b.b.b.b.b.b.b.b.b.b.b.b.b.b.b.b.b.b.b.b.b.b.b.b.b.b.b.b.b.b.b.b.b.b.b.b.b.b.b.b.b.b.b.b.b",
".b.b.b.b.b.b.b.b.b.b.b.b.b.b.b.b.b.b.b.b.b.b.b.b.b.b.b.b.b.b.b.b.b.b.b.b.b.b.b.b.b.b.b.b.b.b.b.b.b.b.b.b.b.b.b.b.b.b.b.b.b.b.b.b.b.b.b.b.b.b.b.b.b.b.b.b.b.b.b.b.b.b.b.b.b.b.b.b.b.b",
".b.b.b.b.b.b.b.b.b.b.b.b.b.b.b.b.b.b.b.b.b.b.b.b.b.b.b.b.b.b.b.b.b.b.b.A.r.p.m.g.f.................f.i.m.n.r.u.b.b.b.b.b.b.b.b.b.b.b.b.b.b.b.b.b.b.b.b.b.b.b.b.b.b.b.b.b.b.b.b.b.b.b",
".b.b.b.b.b.b.b.b.b.b.b.b.b.b.b.b.b.b.b.b.b.b.b.b.b.b.b.b.b.b.b.u.q.l.d.........P.N##############.8.N.N.........d.j.o.s.b.b.b.b.b.b.b.b.b.b.b.b.b.b.b.b.b.b.b.b.b.b.b.b.b.b.b.b.b.b.b",
".b.b.b.b.b.b.b.b.b.b.b.b.b.b.b.b.b.b.b.b.b.b.b.b.b.b.b.b.b.n.i.......P###I#L#3#3#3#3#3#3#3#Y#3#X#Y#X#3#Y#L#y##.N.......j.q.b.b.b.b.b.b.b.b.b.b.b.b.b.b.b.b.b.b.b.b.b.b.b.b.b.b.b.b.b",
".b.b.b.b.b.b.b.b.b.b.b.b.b.b.b.b.b.b.b.b.b.b.b.b.b.b.r.j.c...d.X#x#3#3#3#3#3#3#3#X#3#X#X#X#3#X#X#3#X#X#X#W#X#X#X#Y#q.X.d...c.m.x.b.b.b.b.b.b.b.b.b.b.b.b.b.b.b.b.b.b.b.b.b.b.b.b.b.b",
".b.b.b.b.b.b.b.b.b.b.b.b.b.b.b.b.b.b.b.b.b.b.b.b.w.j.#...N#o#3#3#3#3#3#3#3#X#X#3#X#X#3#X#X#X#X#X#W#X#W#W#X#X#W#W#X#W#X#Y#m.N.....j.t.b.b.b.b.b.b.b.b.b.b.b.b.b.b.b.b.b.b.b.b.b.b.b.b",
".b.b.b.b.b.b.b.b.b.b.b.b.b.b.b.b.b.b.b.b.b.b.w.l.....X#K#3#3#3#3#3#3#Y#X#X#X#3#X#X#W#X#W#X#W#W#W#X#W#X#W#W#W#W#W#V#V#M#V#W#M#I.X.....k.w.b.b.b.b.b.b.b.b.b.b.b.b.b.b.b.b.b.b.b.b.b.b",
".b.b.b.b.b.b.b.b.b.b.b.b.b.b.b.b.b.b.b.b.b.n.c...X#W#3#3#3#3#3#X#3#X#X#3#X#X#W#X#W#X#W#X#W#W#W#V#L#V#L#V#L#V#L#V#L#W#L#W#L#V#W#M#J.W...d.n.b.b.b.b.b.b.b.b.b.b.b.b.b.b.b.b.b.b.b.b.b",
".b.b.b.b.b.b.b.b.b.b.b.b.b.b.b.b.b.b.b.r.d...F#I#3#3#3#3#3#X#3#X#X#3#X#WaxaZbbbCbFbPbPbPbPbPbPbPbFbxbaaZap#L#L#L#K#L#L#K#L#L#K#L#K#M#q.D...f.r.b.b.b.b.b.b.b.b.b.b.b.b.b.b.b.b.b.b.b",
".b.b.b.b.b.b.b.b.b.b.b.b.b.b.b.b.b.b.o.c.d#m#3#3#3#3#3#X#X#3#X#XaaaZbrbPbPbPbPbibmaEaFaFaGaFaGaGbmbmbPbPbPbPbqaZ#8#K#K#K#K#K#L#K#L#K#K#M##.d.c.m.b.b.b.b.b.b.b.b.b.b.b.b.b.b.b.b.b.b",
".b.b.b.b.b.b.b.b.b.b.b.b.b.b.b.b.x.l...F#J#3#3#3#3#Y#X#X#3#XaSbCbPbPbDa4ad#t.E.D.F.E.F.F.F.F.G.G.G.G.G#Nala4bGbPbPbCaJ#J#J#J#J#J#J#J#K#J#K#x.D...j.r.b.b.b.b.b.b.b.b.b.b.b.b.b.b.b.b",
".b.b.b.b.b.b.b.b.b.b.b.b.b.b.b.y.f...X#3#3#3#3#X#X#3#X#8a7bKbPbIaU#t.D.j.D.D.j.F.D.F.E.F.E.F.F.G.G.G.N.G.G.H.N#CaWbLbPbJa3#W#J#K#J#J#J#J#J#K#J.Q...f.z.b.b.b.b.b.b.b.b.b.b.b.b.b.b.b",
".b.b.b.b.b.b.b.b.b.b.b.b.b.b.r.d.c#o#3#3#3#3#X#3#X#Xa3bObPbsac.D.j.D.j.D.j.D.D.j.D.j.D.E.F.E.M.F.M.G.G.N.G.N.H.N.N.OalbAbPbMaR#I#A#I#B#I#J#J#K#K#a...d.w.b.b.b.b.b.b.b.b.b.b.b.b.b.b",
".b.b.b.b.b.b.b.b.b.b.b.b.b.r.c.d#o#3#3#3#3#X#X#XaxbFbPbD#N.D.i.D.D.j.D.D.i.D.j.D.j.D.D.D.D.E.F.E.F.M.G.F.N.G.G.N.N.N.Q.O#ZbHbPbEan#A#I#I#A#A#I#A#I#a.d.c.r.b.b.b.b.b.b.b.b.b.b.b.b.b",
".b.b.b.b.b.b.b.b.b.b.b.b.r.c.d#J#3#3#3#X#X#3#XbabPbIaq.D.i.j.D.D.g.B.i.B.i.g.C.i.D.j.D.j.D.D.D.E.F.F.F.G.G.G.N.N.H.N.Q.Q.Q.QaybLbPba#z#A#z#I#B#I#B#I#q.d.c.t.b.b.b.b.b.b.b.b.b.b.b.b",
".b.b.b.b.b.b.b.b.b.b.b.u.f..#J#3#3#3#X#X#XaabEbPbc.M.D.g.D.B.g.g.C.i.B.i.g.B.i.g.C.C.j.D.j.D.D.D.F.E.F.M.G.G.N.G.N.N.N.Q.Q.R.R.6bebPbE#2#A#z#z#z#z#A#I#p...f.w.b.b.b.b.b.b.b.b.b.b.b",
".b.b.b.b.b.b.b.b.b.b.b.f..#o#3#3#X#X#X#WapbNbPaq.j.C.j.B.i.C.C.B.g.g.g.B.g.g.B.i.B.g.C.i.D.j.j.D.D.F.E.F.M.G.G.N.G.N.N.N.Q.Q.W.R.WaybPbNa##z#I#z#I#z#z#A##...f.b.b.b.b.b.b.b.b.b.b.b",
".b.b.b.b.b.b.b.b.b.b.l..#l#3#3#X#3#X#WaSbNbL#s.j.D.g.B.i.B.g.g.i.g.B.f.g.f.f.g.g.g.C.g.B.i.C.D.j.D.D.F.E.F.F.M.G.N.G.N.N.O.Q.Q.R.R.S#QbMbMaC#y#y#z#y#I#z#A.0...k.b.b.b.b.b.b.b.b.b.b",
".b.b.b.b.b.b.b.b.b.q...X#3#3#X#X#X#XaSbPbD#s.j.B.B.i.C.g.f.g.f.B.f.f.f.f.B.f.B.f.f.g.B.i.B.i.C.D.j.D.D.F.F.F.G.G.G.N.H.N.N.Q.Q.R.W.W.T#SbAbPaC#y#z#y#z#y#y#z.Q...p.b.b.b.b.b.b.b.b.b",
".b.b.b.b.b.b.b.b.r.c.F#W#X#X#3#X#WaxbPby.M.D.B.i.i.B.g.f.B.f.f.f.f.f.B.f.f.f.f.f.B.f.g.B.g.B.g.D.C.j.D.D.F.E.M.G.N.G.N.N.N.Q.Q.W.R.W.W.X.8bBbPai#y#y#y#z#z#y#y.C.c.u.b.b.b.b.b.b.b.b",
".b.b.b.b.b.b.b.b.g..#J#3#X#3#W#XakbMbL.M.j.g.C.B.g.f.B.f.f.f.f.f.f.e.f.e.e.f.e.f.f.f.f.f.g.C.g.g.D.D.j.D.E.F.F.M.F.N.G.N.H.N.Q.Q.R.W.R.X.X#jbMbM#7#p#r#q#y#y#y#o...g.b.b.b.b.b.b.b.b",
".b.b.b.b.b.b.b.o..###X#3#X#X#X#3bJbL#s.D.D.C.i.g.g.B.f.f.e.f.e.e.d.f.d.f.d.e.d.e.f.e.f.B.f.f.B.C.B.i.D.D.D.E.F.G.F.G.G.N.N.N.O.Q.R.R.W.X.Z.X#SbLbJ#H#x#r#q#r#r#r.X...p.b.b.b.b.b.b.b",
".b.b.b.b.b.b.u.c.C#V#3#X#X#W#VbCbP#4.h.D.g.g.B.f.B.f.f.f.f.e.d.d.f.d.e.d.d.d.d.d.e.f.e.f.f.B.f.g.g.i.D.j.D.D.E.M.G.F.N.G.N.N.Q.O.W.Q.X.S.X.X.ZambPbl#q#p#q#q#x#q#q.f.d.s.b.b.b.b.b.b",
".b.b.b.b.b.b.m..#x#Y#X#W#W#WaZbPaT.j.C.g.C.B.g.B.f.f.f.e.e.d.f.d.d.d.d.d.d.d.d.d.d.d.f.e.f.f.B.g.C.B.j.C.D.D.F.F.F.G.N.G.N.H.P.Q.Q.W.S.W.X.Z.Z.Ya1bPaQ#p#p#q#p#q#x##...m.b.b.b.b.b.b",
".b.b.b.b.b.u.c.N#X#X#X#X#W#8bNbs.h.D.j.C.g.i.f.g.f.f.e.d.d.d.d.d.d.d.d.d.d.d.d.d.d.d.d.e.f.e.f.f.g.B.C.j.D.j.D.F.F.M.G.N.G.N.N.Q.Q.R.W.T.X.X.Z.Z.ZbBbM#U#q#p#q#p#q#q.D.c.w.b.b.b.b.b",
".b.b.b.b.b.n..#y#X#W#W#W#LbrbP#t.D.j.C.g.C.f.B.f.e.f.d.f.f.d.d.d.d.d.d.d.d.d.d.d.d.d.d.d.e.f.f.B.f.g.g.C.D.D.D.E.F.G.F.G.N.N.N.O.Q.Q.R.W.X.X.X.Z.7#FbPb##p#o#p#q#p#q#a...n.b.b.b.b.b",
".b.b.b.b.b.d.F#3#W#X#W#LaxbPa4.D.D.D.g.C.g.B.f.f.f.e.f.d.d.d.d.d.d.c.#.d.c.c.#.c.d.d.d.f.d.e.f.f.g.B.C.B.j.D.D.F.F.M.F.N.G.N.N.Q.O.W.R.W.X.X.Z.Z.Z.9a9bPa.#o#p#o#o#p#q.C.d.b.b.b.b.b",
".b.b.b.b.p..#o#W#X#W#V#VbwbI.N.C.j.C.g.C.g.f.g.f.e.d.d.d.d.d.c.#.c.a.c.#.c.a.c.a.c.d.d.d.e.f.e.f.f.B.g.i.D.j.D.E.F.F.G.N.G.N.H.Q.Q.Q.R.W.T.X.Z.7.Z.9#kbMbu#e#e#o#p#o#p.Z...q.b.b.b.b",
".b.b.b.b.j.d#X#X#W#V#MajbPaE.D.D.D.i.B.g.B.f.f.f.f.e.d.d.d.d.#.#.#.c.#.d.#.c.#.c.a.d.d.d.d.d.f.f.f.g.B.B.i.D.D.D.F.E.M.G.N.G.N.N.Q.R.Q.W.X.X.X.Z.Z.9.0aXbP#6#d#e#e#e#o#p.c.g.b.b.b.b",
".b.b.b.w...W#W#X#L#V#LbgbP#f.D.j.D.h.C.i.f.B.f.f.d.f.d.d.d.d.#.c.#.d.#...#.#...#.c.#.d.d.d.d.e.f.f.f.C.g.C.j.D.D.F.F.G.G.G.N.N.O.Q.Q.W.T.W.Z.X.Z.7.0.9#FbPbf#c#n#n#o#e#o.H...u.b.b.b",
".b.b.b.n..#x#X#L#W#V#WbOa4.D.j.D.C.i.C.g.B.f.f.e.e.d.d.d.c.d.c.#.#.c.#...#.....#.#...d.d.d.d.f.f.f.f.B.g.D.D.D.D.E.M.G.F.N.N.N.P.Q.Q.R.W.X.X.X.Z.Z.9.9.9b.bM#w#c#c#e#d#o.0...p.b.b.b",
".b.b.b.i.d#X#V#V#L#KaKbP#4.j.F.D.j.B.g.g.f.g.f.f.d.d.d.d.d.d.#.c.#.#.c.........#...#.d.c.d.d.e.f.e.B.g.C.g.C.j.D.F.F.M.G.N.G.N.Q.O.Q.R.W.X.X.Z.7.Z.9.0#.agbPaw#c#m#c#m#e#o.c.k.b.b.b",
".b.b.b.c.Q#W#M#V#L#KbqbL.F.D.D.j.C.i.C.B.g.f.e.f.e.d.d.d.d.d.c.a.#...#.............#.#.d.d.d.d.f.f.f.g.B.C.j.D.D.F.E.G.G.N.G.N.P.Q.Q.R.S.W.X.X.Z.Z.9.9.9#.bMbk#c#c#c#c#c#c.F.c.b.b.b",
".b.b.r..#a#V#V#L#K#JbMa4.F.l.D.D.j.B.g.g.f.B.f.d.f.d.d.d.c.a.c.....................#...#.d.d.f.e.f.f.C.g.i.D.D.D.F.F.M.G.G.N.N.O.Q.Q.R.W.X.X.Z.Z.Z.9.0#.#.b.bM#b#a#c#c#c#n.S...q.b.b",
".b.b.q..#x#M#L#K#KaobPae.E.D.D.j.C.g.i.f.g.f.e.f.d.d.d.d.c.d.#...#...................d.d.d.e.d.f.f.f.g.B.C.j.D.D.E.M.G.G.N.G.N.Q.O.W.R.S.W.Z.X.Z.7.0.9#.#.avbP#1#a#c#a#b#c.0...o.b.b",
".b.b.n..#X#L#K#K#JaRbP#f.F.F.k.D.D.D.B.B.g.f.f.e.e.d.d.d.d.#.c.a.#...................#.c.d.d.f.e.f.B.B.i.B.D.D.F.F.F.G.G.N.N.N.Q.Q.Q.R.W.X.X.Z.Z.7.9.9#.###FbPaH.4#a#a#c#a#c...n.b.b",
".b.b.i.C#L#L#L#J#JbgbP.F.E.D.D.D.i.j.i.C.B.g.f.f.d.f.d.d.d.d.#.......................#.#.d.d.e.f.e.f.B.g.C.j.D.D.F.F.G.G.N.N.H.Q.Q.R.W.S.X.X.Z.Z.Z.0.9#.###.bPb..3#a.4#a#a#c.d.f.b.b",
".b.b.i.N#L#K#K#J#Kbwbn.G.F.F.F.D.D.D.B.i.g.f.e.f.e.d.d.d.c.a.c.#...................#.#.d.d.e.d.f.f.g.g.C.i.D.D.F.E.G.M.N.G.N.N.O.Q.Q.R.W.X.X.Y.Z.9.9#..9#a#.bpbt.2.1#a.4#a#a.D.g.b.b",
".b.b...Q#K#K#J#J#AbJbd.G.E.F.D.j.j.B.i.g.g.B.f.f.e.d.d.d.d.d.d.#.#.#.................#.c.d.d.e.f.f.B.B.g.D.j.D.E.F.M.G.G.N.N.P.Q.Q.R.W.S.Z.X.Z.Z.7.0#.#.###.bkbH.1#..1.1.4#a.F.c.b.b",
".b.b...9#K#J#J#K#IbPaG.F.F.E.E.D.D.j.D.g.C.f.f.f.e.f.d.d.d.d.d.d.#.#.#.#.....#.#.#.#.#.d.d.f.f.f.B.f.g.C.j.D.D.F.F.G.G.N.N.N.P.O.Q.W.R.X.X.Z.7.Z.9.9.9#.###aaYbP.1.1.1#..2##.H...b.b",
".b.b...0#K#J#J#A#AbPaL.G.F.F.F.j.D.i.D.g.g.B.g.f.f.f.e.e.d.d.d.d.d.d.d.a.#.a.c.#.#.c.d.d.e.e.f.e.g.B.i.B.D.j.F.E.M.F.G.G.N.H.Q.Q.R.R.W.X.X.X.Z.7.0.9#.###.##aYbP.0.1.1.1#..2.N...b.b",
".b.b...8#J#J#J#I#AbPaL.G.G.E.F.F.j.D.j.C.i.g.B.f.B.f.f.f.e.d.d.d.d.d.d.c.d.d.d.d.d.d.d.d.d.f.f.B.f.i.B.j.D.D.D.F.F.G.G.N.N.N.Q.Q.Q.W.S.X.X.Z.Z.0.9.9#.#.#a#.aYbP.0.0.1.1.1#..H...b.b",
".b.b...Z#K#J#I#A#zbPaL.G.G.G.F.E.D.j.D.D.D.C.g.B.f.f.e.e.f.f.f.d.d.d.d.d.d.d.d.d.d.e.d.f.f.f.f.B.g.B.C.j.D.D.E.F.M.G.G.N.N.P.Q.Q.R.R.W.Z.X.Z.Z.7.9#.#.######aYbP.0.0.0.0.1.1.N...b.b",
".b.b...Z#K#A#A#A#IbPaG.G.G.G.M.F.F.D.D.j.i.B.g.g.g.f.B.f.f.e.e.f.d.e.d.d.d.d.e.f.e.d.f.f.e.B.g.g.C.g.j.D.D.F.F.F.G.G.N.N.N.O.Q.W.R.W.X.X.Z.Z.7.0.9.9#.###a#.aYbP.Z.0.0.0.1.0.G...b.b",
".b.b...Z#J#I#I#z#zbPaG.N.G.G.F.E.F.F.D.D.D.j.B.i.B.B.f.B.f.f.f.e.f.d.f.f.e.f.e.d.f.f.f.f.B.f.B.B.g.D.D.D.D.E.F.M.G.G.G.N.N.Q.Q.Q.W.S.X.X.Z.Z.9.9.9#.#.#a#.##aPbP.V.Z.0.0.0.3.G...b.b",
".b.b.c.Q#I#B#z#z#zbJbd.G.N.G.G.F.E.F.F.D.j.C.j.C.g.i.B.f.B.f.f.f.f.f.f.e.f.f.f.f.f.f.f.B.f.g.g.d.j.C.j.D.D.M.F.G.G.G.N.N.N.Q.R.R.R.W.Z.X.Z.Z.7.0#.#.#a###.#.bjbI.U.Z.V.Z.0.0.F.c.b.b",
".b.b.i.M#I#z#I#z#ybvbn.G.N.G.G.G.F.F.F.j.D.D.D.B.D.B.B.i.B.g.B.f.B.f.f.f.f.e.f.f.B.g.B.g.g.C.B.D.B.j.D.E.E.F.M.G.G.N.N.N.Q.Q.Q.S.W.X.X.Z.Z.7.9.9.9#.#.#a###.bpbo.Y.V.Z.Z.Z.0.f.i.b.b",
".b.b.g.f#J#A#z#y#zbgbP.N.G.N.G.G.G.M.E.F.D.E.j.D.j.i.C.g.C.B.g.g.B.f.B.g.B.B.B.B.g.B.g.C.B.i.j.i.j.D.k.E.F.F.G.G.N.G.N.Q.Q.Q.W.W.T.X.Z.Z.Z.9.0#.#.#####.#.#.bPa6.T.U.Y.V.Z.0.d.i.b.b",
".b.b.n..#A#I#z#y#yaQbP#h.N.G.N.G.G.G.F.F.F.D.D.D.D.D.j.D.g.C.B.i.B.g.g.B.i.B.g.g.C.i.B.i.D.D.D.D.D.k.E.E.E.G.G.G.N.N.N.O.Q.R.R.W.X.Y.X.Z.7.0.9.9#.###a###.#0bPay.T.T.U.Y.V.Z...m.b.b",
".b.b.p..#m#z#z#z#y#7bPal.N.N.G.N.N.G.G.F.F.F.F.j.D.D.D.j.D.j.C.C.i.C.C.i.B.i.C.C.g.D.i.D.D.j.D.E.D.E.E.E.G.G.G.N.N.N.Q.Q.Q.R.W.T.X.X.7.Z.0.8#.#.#.#a#.#..1aubP#R.T.T.X.T.U.Q...q.b.b",
".b.b.u...8#z#y#y#r#qbNa4.N.N.N.N.G.M.G.G.G.F.E.F.F.D.D.D.D.D.D.h.D.D.g.D.i.D.C.h.D.j.D.D.j.D.D.D.E.F.E.G.G.G.N.N.N.N.Q.Q.R.W.W.X.X.Z.Z.Z.9.9#.#.#a#.###..9b.bM.K.S.T.T.U.Y.G...v.b.b",
".b.b.b.c.N#z#z#y#r#qblbL.N.H.N.G.N.G.N.M.G.M.F.F.E.F.E.D.j.D.j.D.D.j.D.D.D.D.j.D.D.D.D.D.E.F.F.F.F.E.G.G.G.N.G.N.P.Q.Q.R.W.R.X.Z.Z.Z.7.9.0.9#.#####a#.#..1bMa9.K.R.T.S.T.T.C.c.b.b.b",
".b.b.b.j.d#y#y#y#q#qaIbPae.N.N.N.G.N.G.N.G.G.G.M.F.E.F.F.F.F.D.D.D.D.D.D.D.D.D.D.F.D.F.D.F.E.M.G.G.G.G.G.N.N.N.Q.O.Q.R.R.W.X.X.X.Z.Z.0.7.9#.#.###a#.#.#.agbPam.K.R.K.T.S.T.c.j.b.b.b",
".b.b.b.p..#a#z#q#r#p#ybMa5.Q.P.N.N.N.N.G.N.G.G.G.G.G.F.E.F.E.F.F.F.F.F.F.F.F.F.F.E.F.F.F.F.F.F.G.G.M.N.N.N.N.O.P.Q.Q.R.W.T.X.X.Z.Z.7.9.9#.#.#.#a#.###..0bfbM.X.Q.K.R.R.T.H...p.b.b.b",
".b.b.b.A...N#y#r#q#p#pb#bP#u.Q.P.N.G.N.N.G.N.N.N.G.M.G.G.G.M.F.E.F.E.F.E.F.E.F.F.F.F.G.M.G.G.G.G.G.N.G.G.N.N.Q.Q.R.R.W.W.X.X.Z.Z.Z.9.0.9#.#####.###..1#EbPa5.J.Q.Q.S.K.K.C...A.b.b.b",
".b.b.b.b.j.d#r#q#p#q#p#6bPaM.O.Q.Q.N.N.N.N.G.N.F.N.G.N.M.M.G.G.M.F.F.G.G.G.G.G.G.M.G.G.G.G.G.G.N.N.G.N.Q.P.Q.Q.Q.R.W.S.X.X.Z.Z.7.9.0.9#.#.###a###.#..9aObP#D.I.Q.J.Q.R.S.#.j.b.b.b.b",
".b.b.b.b.q...0#x#q#p#o#pbubL.6.Q.Q.Q.N.H.N.N.G.N.G.N.G.G.N.G.G.G.G.G.M.G.M.G.G.G.G.G.G.G.N.N.N.G.N.N.Q.N.Q.R.Q.R.W.T.X.Z.X.Z.Z.0.7.9#.#.###.#.#a#..1#kbMbn.H.I.I.O.J.Q.G...q.b.b.b.b",
".b.b.b.b.b.d.C#q#p#q#p#eahbPa8.W.Q.Q.Q.Q.N.N.N.N.N.G.N.N.G.N.N.G.N.N.N.N.N.N.N.N.N.N.N.N.N.N.N.N.Q.N.Q.R.Q.R.R.W.W.X.X.X.Z.Z.7.9.9#.#.###.#a###.#..0b.bP#Q.H.H.O.I.R.J.d.d.b.b.b.b.b",
".b.b.b.b.b.n..###p#p#o#e#db#bP#P.R.W.Q.Q.Q.Q.P.H.N.N.N.N.G.N.G.N.N.G.G.G.G.N.G.N.N.N.N.N.N.N.N.Q.Q.Q.Q.Q.R.W.W.X.X.X.Z.Z.Z.9.9.0#.#.###.#a###.#..0#TbPa4.G.H.N.H.J.I.G...n.b.b.b.b.b",
".b.b.b.b.b.A.c.F#q#o#p#e#o#GbMbz.R.Q.W.Q.Q.O.Q.Q.Q.N.N.H.N.N.N.N.G.N.N.N.N.N.N.N.G.N.N.P.Q.Q.Q.Q.Q.R.R.W.W.S.X.X.Z.Z.Z.Z.9.Z.9#..9###.#a#.#.#..1.0bDbM.W.G.H.H.H.N.I.d.d.w.b.b.b.b.b",
".b.b.b.b.b.b.n...0#p#o#d#n#caIbPa0.W.R.W.R.Q.Q.O.Q.Q.Q.Q.Q.P.N.P.N.P.N.P.N.P.P.Q.Q.Q.Q.O.Q.Q.R.Q.R.W.R.S.X.X.X.Z.X.Z.7.9.0.9#..9#.#a#.###a#.#..0a2bPar.G.G.N.G.H.H.F.c.m.b.b.b.b.b.b",
".b.b.b.b.b.b.A.c.d#p#e#o#c#c#bbkbP#9.W.R.W.R.W.R.Q.Q.Q.O.Q.O.Q.Q.Q.Q.Q.Q.Q.O.Q.O.Q.Q.Q.Q.R.Q.W.R.W.R.X.X.X.X.Y.Z.Z.Z.9.0.9#.#.#.#a#.#a#.#.#..0afbPbc.G.G.G.G.G.H.H.c.c.z.b.b.b.b.b.b",
".b.b.b.b.b.b.b.p...S#e#o#c#c#c#obIbM#Q.W.W.W.R.W.R.W.Q.R.Q.Q.Q.Q.Q.Q.Q.Q.Q.Q.Q.Q.R.Q.R.W.R.W.W.S.X.X.X.X.X.Z.Z.Z.7.9.0.9#..9#.#a#.#####.#..0#TbMbG.N.l.G.G.G.H.G.g...q.b.b.b.b.b.b.b",
".b.b.b.b.b.b.b.b.i..###d#c#n#a#c#1bLbM.7.T.W.W.S.W.R.W.R.W.R.Q.W.R.Q.W.R.R.W.R.R.W.R.W.R.W.R.X.X.X.X.Z.Z.Z.Z.7.9.0.9.9#..9#.#a###.#a#.#..0#kbMbL#g.k.l.F.G.G.G.F...j.b.b.b.b.b.b.b.b",
".b.b.b.b.b.b.b.b.w.c.B#c#c#c#c#a.2ahbPbB#i.X.X.X.W.W.S.W.W.W.R.S.W.R.R.W.R.W.W.W.S.W.S.X.X.X.X.X.Z.X.Z.Z.7.Z.0.7.9#..9#.###a#.###a#.#..0#lbBbP#O.j.E.k.l.F.G.G.d.c.v.b.b.b.b.b.b.b.b",
".b.b.b.b.b.b.b.b.b.o...N#m#c#c#a#a.1aubPbB#S.X.X.X.X.X.X.T.W.X.W.T.W.W.W.S.X.S.X.X.X.Z.X.X.X.Z.Z.Z.Z.Z.7.0.9.9#..9#.#.#.#a#.#a#.#.#..0#TbHbPac.j.E.j.k.E.l.G.f...p.b.b.b.b.b.b.b.b.b",
".b.b.b.b.b.b.b.b.b.b.j...R#c#b#a#a.3.1aubLbM#Z.Z.X.Z.X.X.X.X.X.X.X.Y.X.Y.X.X.X.Y.X.X.X.Z.Z.Z.Z.Z.7.Z.9.0.9.9#..9#.#.###a###.###.#..0#TbMbLac.j.D.j.l.D.k.l.g...l.b.b.b.b.b.b.b.b.b.b",
".b.b.b.b.b.b.b.b.b.b.b.f...W#c.4#a.1#a.1#TbMbPaA.Z.Z.X.Z.Z.X.Z.X.Z.X.X.X.Z.X.Z.X.Z.Z.Z.Z.Z.7.Z.7.0.9.9.9.9#..9#.#####a#.#a#.#.#..0aNbPbI#s.g.j.j.j.D.k.D.g...f.b.b.b.b.b.b.b.b.b.b.b",
".b.b.b.b.b.b.b.b.b.b.b.v.f.c.0#a.4.1.1.1.1#vbBbPbi#j.Z.Z.Z.Z.Z.Z.Z.Z.Z.Z.Z.Z.7.Z.Z.7.Z.7.Z.9.9.0.8.0.9#.#.#.#.#a#.#a#.###.#..0#lbpbPbs.5.g.j.h.j.D.j.E.j...f.A.b.b.b.b.b.b.b.b.b.b.b",
".b.b.b.b.b.b.b.b.b.b.b.b.A.c.c.Z#a.2#..0.1.0.Va1bPbMaB.7.Z.7.Z.Z.7.Z.Z.7.Z.7.Z.Z.9.Z.9.0.9.0.9.9#.#.#.#.#.#####.#a###.#.#..1aBbMbPaL.g.g.g.g.j.h.j.j.i...d.v.b.b.b.b.b.b.b.b.b.b.b.b",
".b.b.b.b.b.b.b.b.b.b.b.b.b.t.c.c.R#..1.1.0.0.0.Y#0bAbPbI#9.0.9.9.0.9.9.0.9.0.9.9.0.9.9.9.9#..9#.#.###.#####a#.#a#.#.#.#.#5bIbPbs#N.f.g.g.h.i.g.j.h.f.c.d.v.b.b.b.b.b.b.b.b.b.b.b.b.b",
".b.b.b.b.b.b.b.b.b.b.b.b.b.b.q.d...Q.1.1.0.0.Z.V.Z.TazbLbPbBat.0.9.9.0.9.9.9.9.9.9#..9#..9#.#.#.###.###a#.###a#.#.#.aubBbPbIaq.e.f.g.g.g.g.g.h.D.f...d.v.b.b.b.b.b.b.b.b.b.b.b.b.b.b",
".b.b.b.b.b.b.b.b.b.b.b.b.b.b.b.t.f...F.1.0.0.Z.Z.U.U.T.7aNbHbPbMa2#0.9#..9#.#.#.#..9#.#.###.###a#.#a#.###a#.#.#0a2bMbPbDaD.L.f.g.f.g.f.g.g.i.g.d...i.A.b.b.b.b.b.b.b.b.b.b.b.b.b.b.b",
".b.b.b.b.b.b.b.b.b.b.b.b.b.b.b.b.w.k...f.Z.0.0.Y.Z.T.T.S.K.KambobPbPbIb.au#0#.#.#.#a#.###a#.#a###.###a#0aub.bIbPbPbhab.e.f.g.g.f.g.f.g.g.g.g.c...l.A.b.b.b.b.b.b.b.b.b.b.b.b.b.b.b.b",
".b.b.b.b.b.b.b.b.b.b.b.b.b.b.b.b.b.b.q...c.G.Z.V.U.Y.T.T.T.R.K.J#hatbdbPbPbPbPbtbtaYaYaYaYaYaYaYbtbtbPbPbPbPbcad.5.e.g.f.g.g.f.g.g.g.f.g.d.c...o.b.b.b.b.b.b.b.b.b.b.b.b.b.b.b.b.b.b",
".b.b.b.b.b.b.b.b.b.b.b.b.b.b.b.b.b.b.b.t.f...C.Q.Y.T.T.S.K.R.R.Q.O.I.H.H#PasaVbibtbPbPbPbPbPbPbPbsbiaTaq#N.f.e.g.f.g.f.g.f.g.f.g.f.g.e.c...f.u.b.b.b.b.b.b.b.b.b.b.b.b.b.b.b.b.b.b.b",
".b.b.b.b.b.b.b.b.b.b.b.b.b.b.b.b.b.b.b.b.b.m.c...D.R.T.T.T.K.R.J.Q.I.N.H.H.G.G.F.l.k.j.j.j.j.j.g.g.g.g.g.g.g.f.g.f.g.g.f.g.f.g.f.e.d...d.n.b.b.b.b.b.b.b.b.b.b.b.b.b.b.b.b.b.b.b.b.b",
".b.b.b.b.b.b.b.b.b.b.b.b.b.b.b.b.b.b.b.b.b.b.t.j.....D.Q.S.R.K.Q.Q.I.I.H.H.H.G.G.G.F.l.E.j.D.j.j.j.i.g.g.g.f.g.f.g.f.g.g.f.g.e.d.....k.w.b.b.b.b.b.b.b.b.b.b.b.b.b.b.b.b.b.b.b.b.b.b",
".b.b.b.b.b.b.b.b.b.b.b.b.b.b.b.b.b.b.b.b.b.b.b.b.r.k.....f.G.R.J.Q.I.N.H.H.G.G.G.G.l.E.j.E.j.D.h.j.g.h.g.g.g.f.g.g.f.g.f.e.#.c...k.u.b.b.b.b.b.b.b.b.b.b.b.b.b.b.b.b.b.b.b.b.b.b.b.b",
".b.b.b.b.b.b.b.b.b.b.b.b.b.b.b.b.b.b.b.b.b.b.b.b.b.b.u.m.c...c.B.G.I.J.H.H.G.H.G.G.l.l.k.k.j.j.j.j.h.i.g.g.g.g.f.g.e.c.#...c.k.s.b.b.b.b.b.b.b.b.b.b.b.b.b.b.b.b.b.b.b.b.b.b.b.b.b.b",
".b.b.b.b.b.b.b.b.b.b.b.b.b.b.b.b.b.b.b.b.b.b.b.b.b.b.b.b.b.o.j.......d.C.E.G.G.G.G.G.E.l.D.D.j.D.h.j.g.i.g.f.d.#.....#.i.o.b.b.b.b.b.b.b.b.b.b.b.b.b.b.b.b.b.b.b.b.b.b.b.b.b.b.b.b.b",
".b.b.b.b.b.b.b.b.b.b.b.b.b.b.b.b.b.b.b.b.b.b.b.b.b.b.b.b.b.b.b.u.q.k.f...c.....d.d.g.f.f.f.f.e.f.d.c.d.......#.d.j.o.t.b.b.b.b.b.b.b.b.b.b.b.b.b.b.b.b.b.b.b.b.b.b.b.b.b.b.b.b.b.b.b",
".b.b.b.b.b.b.b.b.b.b.b.b.b.b.b.b.b.b.b.b.b.b.b.b.b.b.b.b.b.b.b.b.b.b.b.w.r.n.m.i.f.....#.........c.f.g.l.n.r.w.b.b.b.b.b.b.b.b.b.b.b.b.b.b.b.b.b.b.b.b.b.b.b.b.b.b.b.b.b.b.b.b.b.b.b",
".b.b.b.b.b.b.b.b.b.b.b.b.b.b.b.b.b.b.b.b.b.b.b.b.b.b.b.b.b.b.b.b.b.b.b.b.b.b.b.b.b.b.b.b.b.b.b.b.b.b.b.b.b.b.b.b.b.b.b.b.b.b.b.b.b.b.b.b.b.b.b.b.b.b.b.b.b.b.b.b.b.b.b.b.b.b.b.b.b.b",
".b.b.b.b.b.b.b.b.b.b.b.b.b.b.b.b.b.b.b.b.b.b.b.b.b.b.b.b.b.b.b.b.b.b.b.b.b.b.b.b.b.b.b.b.b.b.b.b.b.b.b.b.b.b.b.b.b.b.b.b.b.b.b.b.b.b.b.b.b.b.b.b.b.b.b.b.b.b.b.b.b.b.b.b.b.b.b.b.b.b",
};
