/* XPM */
static char *on[] = {
/* width height num_colors chars_per_pixel */
"    90    86      249            2",
/* colors */
"b1 s mask c none",
".. c #f8fcf8",
".# c #080808",
".a c #101010",
".b c #181818",
".c c #202020",
".d c #f8f4f0",
".e c #605858",
".f c #484040",
".g c #383030",
".h c #282020",
".i c #201818",
".j c #302020",
".k c #181010",
".l c #100808",
".m c #e0ccc0",
".n c #806860",
".o c #503830",
".p c #f8e4d8",
".q c #805848",
".r c #c8bcb0",
".s c #887870",
".t c #f8dcc8",
".u c #f0d4c0",
".v c #d8bca8",
".w c #605048",
".x c #b89c88",
".y c #b09480",
".z c #403028",
".A c #785848",
".B c #f8b490",
".C c #705040",
".D c #885840",
".E c #f8ece0",
".F c #d8ccc0",
".G c #988c80",
".H c #c8ac98",
".I c #584840",
".J c #f8ccb0",
".K c #886858",
".L c #f8bc98",
".M c #382820",
".N c #a07058",
".O c #684838",
".P c #906048",
".Q c #b07050",
".R c #a06040",
".S c #f0e4d8",
".T c #d0c4b8",
".U c #b0a498",
".V c #908478",
".W c #706058",
".X c #c09c80",
".Y c #a07860",
".Z c #c89470",
".0 c #f8b488",
".1 c #b88460",
".2 c #805840",
".3 c #b07858",
".4 c #a87050",
".5 c #a06848",
".6 c #986040",
".7 c #b87048",
".8 c #b06840",
".9 c #f0dcc8",
"#. c #e8d4c0",
"## c #d0bca8",
"#a c #b09c88",
"#b c #f8d4b8",
"#c c #907868",
"#d c #e8c4a8",
"#e c #887060",
"#f c #d8b498",
"#g c #c8a488",
"#h c #705848",
"#i c #e0b490",
"#j c #b08c70",
"#k c #685040",
"#l c #c89c78",
"#m c #f8bc90",
"#n c #906850",
"#o c #a07050",
"#p c #b87850",
"#q c #b07048",
"#r c #a86840",
"#s c #f8e4d0",
"#t c #e0ccb8",
"#u c #d8c4b0",
"#v c #c0ac98",
"#w c #f8dcc0",
"#x c #a08c78",
"#y c #d8bca0",
"#z c #988470",
"#A c #f8cca8",
"#B c #786050",
"#C c #987860",
"#D c #d8ac88",
"#E c #d0a480",
"#F c #604838",
"#G c #b08460",
"#H c #584030",
"#I c #785840",
"#J c #d09c70",
"#K c #c89468",
"#L c #c08c60",
"#M c #b07850",
"#N c #906040",
"#O c #a87048",
"#P c #a06840",
"#Q c #f0d4b8",
"#R c #e0c4a8",
"#S c #d0b498",
"#T c #c8ac90",
"#U c #c0a488",
"#V c #b09478",
"#W c #e0bc98",
"#X c #a08468",
"#Y c #c09c78",
"#Z c #f8c498",
"#0 c #907058",
"#1 c #886850",
"#2 c #806048",
"#3 c #f8bc88",
"#4 c #a07858",
"#5 c #b88458",
"#6 c #b07040",
"#7 c #f8d4b0",
"#8 c #e8c4a0",
"#9 c #d8b490",
"a. c #d0ac88",
"a# c #f8cca0",
"aa c #c8a480",
"ab c #b89470",
"ac c #b08c68",
"ad c #f8c490",
"ae c #d0a478",
"af c #a88460",
"ag c #c89c70",
"ah c #c09468",
"ai c #987050",
"aj c #b88c60",
"ak c #f8bc80",
"al c #906848",
"am c #b08458",
"an c #a87850",
"ao c #886040",
"ap c #a07048",
"aq c #e0dcd0",
"ar c #a09c90",
"as c #807870",
"at c #e8dcc8",
"au c #e0d4c0",
"av c #c8bca8",
"aw c #c0b4a0",
"ax c #605850",
"ay c #a89c88",
"az c #f0dcc0",
"aA c #a09480",
"aB c #887868",
"aC c #403830",
"aD c #b09c80",
"aE c #685848",
"aF c #907860",
"aG c #605040",
"aH c #705840",
"aI c #483828",
"aJ c #f8f4e8",
"aK c #b8b4a8",
"aL c #b0aca0",
"aM c #989488",
"aN c #787068",
"aO c #f8ecd8",
"aP c #f0e4d0",
"aQ c #706860",
"aR c #d8ccb8",
"aS c #d0c4b0",
"aT c #b8ac98",
"aU c #585048",
"aV c #b0a490",
"aW c #504840",
"aX c #f8e4c8",
"aY c #988c78",
"aZ c #e0ccb0",
"a0 c #d8c4a8",
"a1 c #908470",
"a2 c #c8b498",
"a3 c #c0ac90",
"a4 c #b8a488",
"a5 c #f8dcb8",
"a6 c #786858",
"a7 c #e8cca8",
"a8 c #706050",
"a9 c #a89478",
"b. c #e0c4a0",
"b# c #d8bc98",
"ba c #a08c70",
"bb c #d0b490",
"bc c #988468",
"bd c #c8ac88",
"be c #302820",
"bf c #c0a480",
"bg c #b89c78",
"bh c #887058",
"bi c #e0bc90",
"bj c #584838",
"bk c #b09470",
"bl c #806850",
"bm c #a88c68",
"bn c #f8cc98",
"bo c #786048",
"bp c #504030",
"bq c #c8a478",
"br c #987858",
"bs c #b89468",
"bt c #886848",
"bu c #c8c4b8",
"bv c #888478",
"bw c #686058",
"bx c #484038",
"by c #282018",
"bz c #c8bca0",
"bA c #a89c80",
"bB c #e8d4b0",
"bC c #d8c4a0",
"bD c #c8b490",
"bE c #b8a480",
"bF c #a08c68",
"bG c #e0d4b8",
"bH c #f0e4c8",
"bI c #d8ccb0",
"bJ c #706048",
"bK c #e0dcc8",
"bL c #c0bca8",
"bM c #807868",
"bN c #f8f4e0",
"bO c #d8d4c0",
"bP c #787060",
"bQ c #f0ecd8",
"bR c #e8e4d0",
"bS c #c8c4b0",
"bT c #b0ac98",
"bU c #f8fcf0",
"bV c #f8fce8",
"bW c #505048",
"bX c #484840",
"bY c #303028",
"bZ c #282820",
"b0 c #181810",
"b2 c #000000",
/* pixels */
"b1b1b1b1b1b1b1b1b1b1b1b1b1b1b1b1b1b1b1b1b1b1b1b1b1b1b1b1b1b1b1b1b1b1b1b1b1b1b1b1b1b1b1b1b1b1b1b1b1b1b1b1b1b1b1b1b1b1b1b1b1b1b1b1b1b1b1b1b1b1b1b1b1b1b1b1b1b1b1b1b1b1b1b1b1b1b1b1b1b1",
"b1b1b1b1b1b1b1b1b1b1b1b1b1b1b1b1b1b1b1b1b1b1b1b1b1b1b1b1b1b1b1b1b1b1b1b1b1b1b1b1b1b1b1b1b1b1b1b1b1b1b1b1b1b1b1b1b1b1b1b1b1b1b1b1b1b1b1b1b1b1b1b1b1b1b1b1b1b1b1b1b1b1b1b1b1b1b1b1b1b1",
"b1b1b1b1b1b1b1b1b1b1b1b1b1b1b1b1b1b1b1b1b1b1b1b1b1b1b1b1b1b1b1b1b1b1b1.0a#.J#waO.E.................E.p#w#ba#adb1b1b1b1b1b1b1b1b1b1b1b1b1b1b1b1b1b1b1b1b1b1b1b1b1b1b1b1b1b1b1b1b1b1b1",
"b1b1b1b1b1b1b1b1b1b1b1b1b1b1b1b1b1b1b1b1b1b1b1b1b1b1b1b1b1b1b1ad#A.taJ...d....#.bG#D#D#D#D#D#D#D#9#.bG........aJ#s#7bnb1b1b1b1b1b1b1b1b1b1b1b1b1b1b1b1b1b1b1b1b1b1b1b1b1b1b1b1b1b1b1",
"b1b1b1b1b1b1b1b1b1b1b1b1b1b1b1b1b1b1b1b1b1b1b1b1b1b1b1b1b1#baO......#t#D#L.7.8.8.8.8.8#r.8.8.8.8.8.8.8.8.7#L#DbG......#s#Ab1b1b1b1b1b1b1b1b1b1b1b1b1b1b1b1b1b1b1b1b1b1b1b1b1b1b1b1b1",
"b1b1b1b1b1b1b1b1b1b1b1b1b1b1b1b1b1b1b1b1b1b1b1b1b1b1a##s.d..aJb.#L.8.8#r#r#r#r#r#r#r.8#r.8#r.8#r#6.8#6.8#6#6.8.8.8#Kb.aJ...d#w#3b1b1b1b1b1b1b1b1b1b1b1b1b1b1b1b1b1b1b1b1b1b1b1b1b1b1",
"b1b1b1b1b1b1b1b1b1b1b1b1b1b1b1b1b1b1b1b1b1b1b1b1#m#sbU..bG#J#r#r#r#r#r#r#r#r#r#r#r#r#r#r#r#r#r#r#r#r#O#r#O#r#O.8#q.8.8.8#J#.....#s#Zb1b1b1b1b1b1b1b1b1b1b1b1b1b1b1b1b1b1b1b1b1b1b1b1",
"b1b1b1b1b1b1b1b1b1b1b1b1b1b1b1b1b1b1b1b1b1b1#m.t....b..7.8#r#r#r#r.R.R#P.R.R#P.R#P#P#P#P.5#P#P.5#P.5#P.5#r#O#r#O#O#O#O#q#q#q#pb.....aX#mb1b1b1b1b1b1b1b1b1b1b1b1b1b1b1b1b1b1b1b1b1b1",
"b1b1b1b1b1b1b1b1b1b1b1b1b1b1b1b1b1b1b1b1b1a5.d..b..7#r#r#r.R.R.R.R.R#P.6.6#P.6.6.6.P.R.6.6al#P.5.6.5#Pal.5al#P.5#P#r#O#O#O#6#q#q#p#d..aJ#bb1b1b1b1b1b1b1b1b1b1b1b1b1b1b1b1b1b1b1b1b1",
"b1b1b1b1b1b1b1b1b1b1b1b1b1b1b1b1b1b1b1a#aJ...9#5#r#r#r.R.R#P.R.6.6.6.6.6#N#N#N.P#N#N.Pal.6.6.P#Nal.P.P.Pal.5.Pal.5al.5#O#O#O#q#q#q#q#KaP...Ea#b1b1b1b1b1b1b1b1b1b1b1b1b1b1b1b1b1b1b1",
"b1b1b1b1b1b1b1b1b1b1b1b1b1b1b1b1b1b1#7.daJae#r#r#r.R.R#P.6.6.6.6#N#N#Naoaoaoaoaobtaoaoaoaobtbt.Pbt.P.P.P.P.Pal.P.Palalalal.5ap#O#q#q#q#q#DaJ.d#wb1b1b1b1b1b1b1b1b1b1b1b1b1b1b1b1b1b1",
"b1b1b1b1b1b1b1b1b1b1b1b1b1b1b1b1#3.t...9#p#r#r#r.R#P.6.6.6#N#Naoaoao.2.Dbt.q.2.q.2.2.q.q.q.q.2.2#2.2#2#2#2.qbtbtal.Palalalai#o#o#o.4.Q#p#M#LaP..#sa#b1b1b1b1b1b1b1b1b1b1b1b1b1b1b1b1",
"b1b1b1b1b1b1b1b1b1b1b1b1b1b1b1ak.E..b.#r#r.R.R.R.6.6.6#Naoao.D.D.2.q.q#I#I#I#F.z.M.ib0.#.#.#.#.#.#.#b0.i.MaI#F.q.q#2bt.P.Palalal.5ap#O.4#M#M#p#d...E.Bb1b1b1b1b1b1b1b1b1b1b1b1b1b1b1",
"b1b1b1b1b1b1b1b1b1b1b1b1b1b1a#aJ.d.Z#r#r.R#P.R.6.6#Nao.D.D.2.2#2.2#I.O.zby.#.#.#.#aC.gaQaQ.WaQbw.WaQ.gaC.#.#.#.#byaC.C#2#1bt#n#naiai#o#o.4#M#M#M#E..aJ#mb1b1b1b1b1b1b1b1b1b1b1b1b1b1",
"b1b1b1b1b1b1b1b1b1b1b1b1b1a#.daJ.Z#r#r.R#P.6.6#N#N.Dao.2.2.q#I#IaI.i.#.#.caUbv.UaRaRaR#uaSaS#uaSaS##aS#####a.saW.c.#.#.i.o.q.qbt#nalai#o#o.4#M#M#p#EaJ.da#b1b1b1b1b1b1b1b1b1b1b1b1b1",
"b1b1b1b1b1b1b1b1b1b1b1b1a#.daJ#p#r#P.R.R.6.6#Naoao.2.2#2#IaH.M.a.#b0.e.UaRaRaRaRaR.TaR.TaS#uaSaS#uaS##aS###########aax.a.#.a.z.A#1bt#n#nai#o#oan#M#MahaJ.d#Zb1b1b1b1b1b1b1b1b1b1b1b1",
"b1b1b1b1b1b1b1b1b1b1b1ad.E..#p#r.R#P.R.6#N#Nao.D.2.q.2#I.z.l.#bYbv.FaRaRaRaRaRaRaRaR#u.TaR.TaRaSaSaSaS##aS########bzbzbzaBbe.#.laI#2#1#n#nai#o.4an.3#pah...E#3b1b1b1b1b1b1b1b1b1b1b1",
"b1b1b1b1b1b1b1b1b1b1b1.E...Z#r#P#r.R.6#N#N.D.2.2.2#I#Hb0.#.caV.FaRaRaR.F.TaR.FaR.TaR.FaR.TaR.TaR#uaSbIaSaSaS########bzbz#Sbz#x.i.#b0#F#1#n#naiai.4an.3#p#E...Eb1b1b1b1b1b1b1b1b1b1b1",
"b1b1b1b1b1b1b1b1b1b1.t..ae#r#r#r.6.6#Nao.D#2.2.A#Ibe.#.aas.F.TaR.F.T.FaR.FaR.F.FaR.FaR.FaRaRaRaRaRaR.TbIaS##aS##########bz#Sbz#SbP.k.#.M#2#1#nai#o#4anam#p#i..aXb1b1b1b1b1b1b1b1b1b1",
"b1b1b1b1b1b1b1b1b1#A..b.#r#r#P.6.6#Naoao.2.2#I.Ob0.#.faSaRaRaR.F.F.FbO.F.FbO.FbO.FbKbOauauauau.m.maR#taR#ubIaSaS######bz##bz#Sa2a2a3bx.#.b#h#1#nai#o#4.3am#5bB...Jb1b1b1b1b1b1b1b1b1",
"b1b1b1b1b1b1b1b1a#.d.9#r#r#P.R.6#N#N.D#2.2.A#F.#.#as.F.F.F.F.F.F.FbO.FbObObKbKbKaubRbRbRatbKatbKat#.bK#.aRaRaRbIaS######bzbz#Sbz#Sa2.Ha6.#.l#k#n#0br#o#4.3am#L.S.dadb1b1b1b1b1b1b1b1",
"b1b1b1b1b1b1b1b1aO..#5#r#r.R.6#N#Nbt.2.2#IaI.l.baLaRaR.F.F.FbO.FbObObObKbKbRbRbRbR.p.S.S.S.p.S#saPaPaPaP#.auau#tbIbI##a0####bz#Sbz#Sa2.Ha9.a.lbx#n#0br#4#4.3#5ah..aOb1b1b1b1b1b1b1b1",
"b1b1b1b1b1b1b1#7..#D#r#r#Pal.6.Pao.2.2.qaC.#.cbTaR.F.FaR.F.FbO.FbKbKbKbRbR.E.E.E.SaO.EaOaObQaObQ.p.S#saPaPbH.9bH#tbGbI#ua0#####Sa2a2a2a2a2a9be.#bp#nbr.N#4am.1.1b....Jb1b1b1b1b1b1b1",
"b1b1b1b1b1b1ad.d.S#6#r#P#P.6#Nao.q.2bo#H.#bYbSaR.F.F.F.FbObObObK.SbR.S.E.E.E.E.E.E.E.EbQ.EaOaO.SbQ#saPaPaPaPbH.9.9.9#taZ#ta0bzbzbza2#SbD.H#T#UbZ.#aG#0br.Nafam.1#L.EaJbnb1b1b1b1b1b1",
"b1b1b1b1b1b1#w..ah#r#r#P.6.P#Nbt.2#2#F.#.baSaR.F.FaRbObObOaqaq.S.E.E.E.E.E.EbN.EbN.E.E.E.EbQ.EbQaObQ.paP#saPaP.9.9#.az#.#.aZa0.vbz#Sa2a2a2#Ta3a4.a.l#k#0br#4af.1aj#E..#wb1b1b1b1b1b1",
"b1b1b1b1b1ad.dbG.8#r.5.R.P#Nao.2.q#k.a.bbT.FaR.F.F.FbO.FbKbRbR.E.E.EbNaJbNbNaJbNaJbNbN.EbN.EaOaO.SaO.S#saPaPaP.9bH.9#.az#Q#.aZaZ#ybz#S#S#TbD#Tbda9.a.kblbrbr#4#Gaj#LaP.d#mb1b1b1b1b1",
"b1b1b1b1b1#b..#L#r#r#P.6.Pao.q#2#I.i.#aMaR.T.F.F.FbObKaq.S.E.EaJbNaJaJ.EaJaJaJaJaJaJaJbN.E.E.E.E.EbQaObQaP#saPaPbH.9bHaz#.#QbGbG#R.vbza2a2.H#T#TbdaF.#.h.Kbr.Yaf#Gaj#l..a5b1b1b1b1b1",
"b1b1b1b1b1aJ.9.8#r.5.5al#Nbt#2.2.z.#.eaRaR.FbO.FbObKbRbR.E.EaJbNaJaJaJaJaJaJaJaJaJaJ.EaJbNbN.E.EbQaO.pbQ.p.SaPaP.9bH.9#.az#.#Q#QbGa0#R#S#SbD#T#T#Ua3aG.#aCbrbraf#Gaj#L.SaJb1b1b1b1b1",
"b1b1b1b1.J..#J#r#O#P.6#Nbt.q.2#k.lbYaR.FaR.F.FbObKbR.E.E.EaJ.EaJaJaJaJaJaJaJaJaJaJaJaJaJaJ.EbN.E.E.EbQaO.S#saP#sbH.9.9az#.azbG#QbG.JbB#y#Sa2#Ta3#Tbd#U.h.l#Bbr.Yafajah#W..#Ab1b1b1b1",
"b1b1b1b1#saJ.8#O#r.5al.Pbt.q.Aby.#bTaRaR.F.F.FbObK.S.E.EaJbNaJaJaJaJaJaJaJaJaJaJaJaJaJaJaJaJ.EbN.EbQ.E.SaOaP.paPaP.9bHazaz#.azbG#QbBbB.vbz#SbD#T#Ubd#gba.#.M#0.Yaf#GbsahaJaOb1b1b1b1",
"b1b1b1#m..#R#q#r.5.6.P.Pbt#2bj.#aUaR.F.T.F.F.FbKbR.E.EaJ.EaJaJaJaJaJ.daJbU.d.d.dbU.daJaJaJbNaJ.E.E.EaOaO.SaOaPaPaPbH.9.9#.az.u#Q#tbBbBa7#y#S#T#T#T#U#Ubdbx.##k#C.Yaf.1ah.u..adb1b1b1",
"b1b1b1#b..ah#r#O.5al.Pbt.q.A.i.a.raR.TaRbO.FbKbR.E.E.EbNaJaJaJaJaJbU.dbV.d.dbV.dbV.dbVaJaJaJaJbNbN.E.EbQaO.S.paPaPaPbH.9az#.azbG#QbBbB#dbB#y#SbD#T#Ubd#Ubg.k.c#0.Ybmacaha....Jb1b1b1",
"b1b1b1aOaJ.8#q#r.5al.Pbt.q#F.#aQaRaRaR.F.FbObKbR.E.EbNaJaJaJaJaJbUbUbU.dbUbV.dbU.dbUaJ.daJaJ.EaJ.E.EbQ.E.SaOaPaP#s.9.9atazaz#.#QbG#tbB#dbB#y#S#Tbd#UbdbfbfaE.#bo.YbmacbsahaJaXb1b1b1",
"b1b1b1.dbB.8#O.5.5al.Pbt.Abe.#aw.TaR.F.TbObKbR.p.E.EbN.EaJaJaJ.dbUbU.dbV.d..bUbU..bUaJbUaJaJaJaJbN.E.E.EbQbQ.paPaPaPbH.9#.az#.#Q#QbBbB#d#R#Rb#bD#Tbd#U#Ubfba.#bY#C.Yacbsab.9.db1b1b1",
"b1b1a#..#D#q#O#O.5.Pbt#2#I.laU.TaR.TaR.F.F.mbR.E.E.EaJaJaJaJaJaJ.dbUbU.dbU..bU....bU....aJaJaJaJ.EbN.E.E.paO.S#saPaP.9bH.9azaz#.#Q#t#tbBa7#R#ybb#T#Ubd#Ubfaabx.lbh#Xacahab#d..#Ab1b1",
"b1b1#A..#L#q#O#Oalal.P#2aC.#.GaR.TaR.FbOaubR.EbQ.EbN.EbNaJaJaJ.dbV.d..bUbU........bU..bU.daJaJaJbN.E.E.EaObQ.paPaPaPbH.9az#.#.#QbG.JbB#dbB#db.#SbD#Tbdbfbfbfbh.#.I#Cbmababa...#7b1b1",
"b1b1#b..#6#q#O.5alalbt.qby.baR.TaRaR.TbObObR.S.E.EbNaJaJaJaJaJaJ.dbUbUbU..............bUbUaJaJaJ.EbN.EbQ.EbQ.S#saPaP.9.9atazazbG#QbGbBbB#d#Rb.b#bbbd#U#Ubf.Xbf.abe#Xbmababae..#bb1b1",
"b1b1.p.S.7#q#O.4ai.P#1#2.#aUaSaRaRaR.FbKbR.p.EaObN.EbNaJaJaJ.daJbUbU....bU............bUbUbUaJaJaJ.E.E.EbQ.pbQ.S#saP.9bHaz#.az#QbG.JbB#dbB#db.b.#S#Tbd#Ubfbf#Ybp.lbcbmababagaJaOb1b1",
"b1b1aO#..7.Q.4.5al#nbt#F.#.saSaR.TaR.F.mbRaObQ.E.E.EaJaJaJaJaJbV.d.......................daJaJaJ.EbNbQ.EaObQ#saPaPaP.9.9ataz#..ubG#tbBaZa7#Rb.b.#9#Tbdbfbf.Xbf#B.#blbaab#Y#laP.Eb1b1",
"b1b1..#d#p#q.4ap#o.PbtaC.#awaS#u.TaR.FauatbQ.EaO.EbN.EaJaJaJaJ.dbV.dbU..................bUaJaJaJbNbN.E.EbQaO.S.paP.9bH.9az#.azbG#QbBbB#da7#db.b.#S#Tbd#Ubfbf#Yba.#bjbmab#Y#l.9.db1b1",
"b1b1..#9#p#M.4#oai#n#2.j.##uaSaR.TaRaRbObR.SaO.EbN.EaJbNaJaJaJbU.dbU....................bUbUaJaJ.E.E.E.EbQ.pbQaPaP.9.9ataz#.azbG#QbBbB#d#R#Rb.b.#9#Tbdbfbf.X#Y#Y.#bYbabg#YbqbG..b1b1",
"b1b1..#i#p#M.4#oai#n#2by.gaSaS#u.TaRauat.S.pbQaO.EbN.EaJaJaJaJaJbU....................bU.daJaJaJbNbN.EbQaO.S.paP#saPbHazat#Q.u#Q#tbB#dbBa7#db.b.#Wbbbd#gbfbf#Ybf.M.hbaab#Yaa#Q..b1b1",
"b1b1..b##p#M#M.4al#nbl.kbxaSaSaSaRaR.FataOaOaObQ.E.EbNaJaJaJaJaJaJbUbVbU................bU.daJ.EaJ.E.E.EaObQ#saPaP.9.9atazazbG#Q#tbBbB#R#d#R#Wb.#Wbbbdbf.Xbf#Y#YaC.kbabg#Yaa#Q..b1b1",
"b1b1..#W#p#pan#oai#nbt.#.WaS#u#u.TaRauataP.SaO.E.E.E.E.EaJaJaJaJaJaJ.dbUbUbU....bUbUbUbUbUaJaJbN.E.EbQaObQ.paPaPaP.9bH.9#.azbG#Q#tbB#dbBa7b.b.b.#Wbbbd#U#Ybf#Y#Y#k.#babgbf#EbG..b1b1",
"b1b1..#W#p#M#M#oai#nbl.#aQaSaSaSbIaR.Fat.paO.SaObQ.EbNbN.EaJaJaJaJaJaJ.daJbUbUaJ.dbUbU.daJaJaJ.EbN.EaObQ.pbQ#saP.9bH.9az#.az#QbG.JbB#d#R#Rb.b.#W#Wbb#gbfbf#Ybg#YaG.#babg.X#Eaz..b1b1",
"b1b1..#W#p#Man.4ai#n#1b2.WaS##aSaSaR#tataP.SaOaOaO.EbQ.EbN.EaJaJaJaJaJaJaJaJ.daJaJaJaJaJaJbNbN.E.EbQ.EbQ.paPaP#saP.9.9azaz#.bG#QbBbBbB#d#db.b.#W#Wbbbdbfbf#Ybf#YaG.#a9bEaaaa.u..b1b1",
"b1b1.daZ#p#5.3#o#o#nbl.#.W##aSaSaS#u.FataP#saP.SbQbQ.E.E.EbN.E.EbNaJaJaJaJaJaJaJaJaJaJaJaJaJ.E.E.EbQaOaObQ#saP.9bHazataz#.#Q#Q#tbBaZa7#R#R#Wb.#W#Wbb#gbfbf#Ybgbf#k.#babEbfa..9.db1b1",
"b1b1.p.9#5#pan.4br#n#1.#.WaS##aSaSaRaR#.aP.SaPaO.paOaO.EbQ.E.EbN.E.EaJbNaJaJaJaJbNbN.EbN.E.E.E.EbQaObQ.S#saPaPaP.9.9.9az#.#QbGbBbB#da7#db.b.b.b##Wa.aabf.X#Y#Y#YaEb2a9.X#Ua..E.pb1b1",
"b1b1aO.E#p#5.3#oai#n#1.#.W##aS##aS#uaRataP#saP.SaObQ.pbQ.EbQ.E.E.EbN.E.E.EbN.EbN.EaJ.E.E.EbQaObQaObQ.paPaPaPaP.9.9ataz#.bGaz#t.JaZa7#R#Rb.#W#W#W#9bbaabf#Ybg#Y#YaG.#a9bE#ga.aJ.pb1b1",
"b1b1#b..#p#5#4#4.Nbr#1.abx####aS##aSaRau.9aP#saP.S.pbQbQ.paObQ.E.E.EbN.EbN.E.E.E.E.EbN.E.EaO.EbQ.paJbQ#s#saPbHbH.9az#.az#QbGbBbB#dbB#db.b.b.#W#W#9a.aabf#Ybfbgbf.z.ba9bE#ga...#wb1b1",
"b1b1#7..#l#p#5an#o#0#1by.g######aS#ubIau.9aP#saP#saP.S.pbQbQaObQbQ.EbQ.E.E.E.EbN.E.EbQbQaObQ.SaObQaPaOaPbHaPbH.9atazazbG#..J#tbBa7#R#db.b.#Wb##W#9a.aabfbg#Y#YaabY.ha9#Ubdbz..#Ab1b1",
"b1b1ad..#i#5am#4#4br.Kbe.#######aS##aSaRau.9aPaPaP#sbQ#s.S.pbQ.SaOaObQ.EbQaObQbQbQbQaOaOaO.SaO.paPaO#saP#sbH.9bHazaz#.#Q#Q#tbBa7a7#db.b.#W#W#W#9bbaabf#Y#Y#Y#Ybf.#aCbAa4bdaz...Lb1b1",
"b1b1b1.d#.#5.3#4#4br#1aC.#a3#########u#ubG.9.9.9aPaPaPaPaOaP.SaObQ.SaOaOaObQ.SaOaO.pbQ.S.SaOaPaP#saPaPaXbHbH.9az#.#.#QbGbGbBbB#d#R#Rb.b.#W#W#W#9a.aabf#Ybg#Ybf#X.#aU.y#U#T.p.db1b1b1",
"b1b1b1#saJ#5am.3#4br#0#h.#bM########aSbI#t.9bH.9.9aP#saPaP#saP#s.S.p.S.S.S.pbQ.S.SaO.p#sbQaP#saPaPbHaPbHbHbHazazaz#.#QbG.JbB#dbB#R#8b.#W#W#W#9#Wa.aa#Ybf#Ybgbf#B.##e#a#Ubb.d#sb1b1b1",
"b1b1b1.J..aa#5#G#4br#0.K.laWbz#########ubG#..9.9bH.9.9aPaPaPaPaP#saPaP#saOaP.paP.paPaPaP#saPaPbHaPbHbHbH.9azazazbGazbB#tbBa7aZ#db.b.b.#W#Wb##9#9#Ebf#Y#Y#Ybfaabx.aa9a4#T##...Jb1b1b1",
"b1b1b1.0..bB#5#G#4#4#0#1bZb0bzbz#########ubGaz#..9.9bH.9.9aP#saPaPaP#saPaPaPaPaPaPaP#saPaPaPbHaP.9.9.9.9azazaz#..ubB#tbB#dbB#R#db.b.#W#W#W#9bia.aa#Y#YbE#Y#Ybf.kbYbAa4#T.p...0b1b1b1",
"b1b1b1b1.paJ.1#G#G#4br.Kbx.#a1bz##bC####bI#taz.9azat.9bH.9.9.9.9aPaPaP#saPaP#saPaPaP.9bH.9.9.9.9.9.9#.az#.#.#.#QbBbG.JbBbB#d#Rb.b.b.#Wb##9#W#9#Ebf#Ybf#Ybfbfbh.#ax#aa3#TbU#sb1b1b1b1",
"b1b1b1b1#A..#i.1af#4#Cbrbl.l.Ibzbz##bC#####uaZ#.azaz#.azatbHbH.9.9.9.9.9.9.9.9.9.9bH.9.9bH.9at.9az#.azazazbGazbG#QbBbB#d#d#R#8b.#W#W#W#W#9#9a.aa#Y#Y#Y#YbfbfaC.aaY.x#v.9..#Ab1b1b1b1",
"b1b1b1b1b1.E.Saj#Gaf#4#0.KbY.#.x#Sbzav#######taz#.#.az.9az#.azat.9.9bHbH.9bH.9bH.9.9.9at.9bHaz#.azaz#.azbG#Q#tbBbB#dbBa7#Rb.b.b.b.b##W#9bi#D#Ebfbfbg#Y#Ybfbk.#aCbAaV#TaJaJb1b1b1b1b1",
"b1b1b1b1b1#b..bq#G#G.Y#C#0aE.#a8bz#SbzbzbC##a0aZbGaz#.#.#.azatazazazat.9#.az#.az#.azataz#.az#.azaz#.azbG#QbG#QbB#dbBa7#R#db.b.#W#W#W#9#9#9a.bf#Y#Y#Y#YbfaaaE.#aBaVa3##..#bb1b1b1b1b1",
"b1b1b1b1b1.0.daP.1#Gafbrbr.Kby.a#vbz#Sbzbz##a0aZ.u#Q#.azaz#.az#.azatazazazataz#.az#.az#.azaz#.#.bG#QbG#QbB#QbB#dbB#d#R#Rb.b.#W#W#W#9#W#9#D#Ebf#Y#Ybgbfbfbg.abZayaVa2aJ.d#3b1b1b1b1b1",
"b1b1b1b1b1b1#b..#g#Gaf.Y#CaFaE.#aW#Sbz#S#Sbz####aZbG#QbG#Q#.az#.az.u#.#.az#.az#.az#.azbGazbG#Q#Q#QbGbBbBbB#dbB#d#R#Ra7#Wb.#W#W#W#9#9#9#Da.bf#Y#Ybf#Ybfaabx.#aNaV.H##..#wb1b1b1b1b1b1",
"b1b1b1b1b1b1.0.d.Ebs#Gaf.Y#Cbhbe.#bA#Sbzbz#Sbzbz.vaZ#QbG#QbG#QbG#QbGaz#Q#.#Q#.#QbG#QbG#QbG#QbGbGbB#QbBbB#dbBa7#Ra7b.b.b.#W#W#Wb##9bi#Da.bf#Y#Y#Y#Ybfbfbm.#.gaya3aw.d.d.Bb1b1b1b1b1b1",
"b1b1b1b1b1b1b1.J..#dbsafaf#CaF#B.a.ha2.H#Sbz#Sbz#ya0bB#QbG#QbG#QbG.u#QbG#QbG#QbG#QbG#QbG#QbBbB.JbBbB#d#dbB#R#R#db.b.b.#W#W#W#9#9bi#D#9#Eaa#Y#Y#Ybfbfaa.h.a.VaVaw.p..#Ab1b1b1b1b1b1b1",
"b1b1b1b1b1b1b1b1aO..#Yacbm.Y#CaFbx.#.wa2a2a2a2#Sbz#ya0#RbBbBbB#t#QbGbG#QbG#QbG#Q#tbBbBbBbB#tbBaZ#d#dbB#R#R#db.b.b.b.#W#Wb#b#bi#9#Da.aabf#Y#Ybfbfbfaabj.#axaV#vav..#sb1b1b1b1b1b1b1b1",
"b1b1b1b1b1b1b1b1#m.d.Sbsacbm.Y#CaF.h.##ca2a2a2a2#Sbzbz#y.vbB.JbBbB.JbBbBbBbBbBbB.JbBbB#dbB#d#dbBa7#R#Ra7b.b.b.b.#W#W#W#W#9bi#9#Da.bfbq#Y#Ybgbf#Ybfbh.#.gayaTbLaJ.d.Lb1b1b1b1b1b1b1b1",
"b1b1b1b1b1b1b1b1b1#7...9bsbmbmbcbcbh.k.aa9.Ha2.Ha2#S#S#Sbz#ya0#dbBaZ#dbB#dbB#dbBaZ#d#dbB#dbB#d#R#R#d#db.b.b.#W#W#W#Wb##9#9#9a.a.bf#Ybf#Y#Y#Ybfaaba.a.baMaTaw.E...Jb1b1b1b1b1b1b1b1b1",
"b1b1b1b1b1b1b1b1b1b1aX..#dbsbm#X#X#ca8.a.a#UbD.HbD.Ha2a2#Sbz#S.va7#dbB#dbBaZ#dbB#da7aZ#d#R#R#R#R#8b.b.b.b.#W#W#W#Wb##9bi#9a.aabf#Y#Y#Y#Ybfbfaabg.a.a.saTaw.p...tb1b1b1b1b1b1b1b1b1b1",
"b1b1b1b1b1b1b1b1b1b1b1.E..a3#jac#X#XbcaG.#bZ#U#T#T.HbD.Ha2#S#S#S#y#y#y#R#d#d#R#R#R#R#d#Ra7#8b.b.b.b.#W#W#W#W#Wb##9bia.a.a.aa#Y#Y#Y#Ybgbfbfbfbg.h.#bMbTawbu...Eb1b1b1b1b1b1b1b1b1b1b1",
"b1b1b1b1b1b1b1b1b1b1b1.L.E.d.Xabbabmbcbc.I.#.h#x#T#T#T#T#T#TbDa2#S#S#S#y#yb.a7#8#Rb.b.b.#Wb.b.#W#W#W#Wb##Wb##9bibba.aabfbf#Y#Ybgbf#Ybf#YbfbF.i.#bwaLaw.r.d.E.0b1b1b1b1b1b1b1b1b1b1b1",
"b1b1b1b1b1b1b1b1b1b1b1b1.0.d.dbfab#jba#Xbc.I.l.aba#U#T#T#Ta3#T#T#TbD#TbDbDb##S#S#fb.#Wb.b.#W#Wb.#W#W#W#Wa.bbbba.aaaabfbf#Ybgbf#Y#Ybfbfbfbm.a.abwbTaw.rbU.d.Lb1b1b1b1b1b1b1b1b1b1b1b1",
"b1b1b1b1b1b1b1b1b1b1b1b1b1bn.d.d.Hbkbkba#X#za6.a.#a8bda3#U#Tbda3#Ta3#T#T#TbbbDbbbD#9#Sbbbbbbbbbbbbbbbbbbbdbdaaaabfbf#Y#Y#Y#Y#Y#YbfbfaabJ.#.abvaLbLbu.d.d#mb1b1b1b1b1b1b1b1b1b1b1b1b1",
"b1b1b1b1b1b1b1b1b1b1b1b1b1b1#AaJ...H#Vbkbaba#z.n.i.#aCbEbd#U#Ubd#Ubd#Ubd#U#Tbd#Tbd#TbDbb#Tbd#Tbdbd#gbdaabf.Xbfbf#Y#Y#Ybg#Y#YbfbfbfbgbY.#.c.Gawawbu..aJ#mb1b1b1b1b1b1b1b1b1b1b1b1b1b1",
"b1b1b1b1b1b1b1b1b1b1b1b1b1b1b1#ZbN..bHbg#V#Vbabaa1aC.#.aa8bd#Ubda3bda3bdbd#U#U#U#Ubd#g#Uaa#gbf#gbfbfbfbf.X#Y#Y#Ybg#Y#Ybf#Ybfbf#YbJ.a.#.f.UaKbLaJ...p.0b1b1b1b1b1b1b1b1b1b1b1b1b1b1b1",
"b1b1b1b1b1b1b1b1b1b1b1b1b1b1b1b1#m.t...Ebf#V#Va9ba#x.W.i.#.i#c#Ubf#Ubf#U#U#U#U#Ubf#Ubfbf#Ubfbfbf.Xbf.Xbf#Y#Ybgbf#Ybfbg#Ybfbf#C.i.#.hasawaK.r.d...t.0b1b1b1b1b1b1b1b1b1b1b1b1b1b1b1b1",
"b1b1b1b1b1b1b1b1b1b1b1b1b1b1b1b1b1b1#A...d.ubEaDa9a9#xaY.I.l.#bea6bfbfbfbfbfbfbfbfbfbfbfbfbfbf.Xbf#Y#Y#Y#Ybgbf#Ybg#Ybfbfbl.h.#.a.e.UaKbLaJbUbU#7b1b1b1b1b1b1b1b1b1b1b1b1b1b1b1b1b1b1",
"b1b1b1b1b1b1b1b1b1b1b1b1b1b1b1b1b1b1b1#Z.E..bQa3bEaDaDbAa9a1bxb0.#.a.I#Xbfbfbfbfbf.Xbf.X#Y.X#Y#Y#Y#Ybg#Ybg#Y#Ybfbf#Xbj.a.#.bbWaraKbLbu.d...E#Zb1b1b1b1b1b1b1b1b1b1b1b1b1b1b1b1b1b1b1",
"b1b1b1b1b1b1b1b1b1b1b1b1b1b1b1b1b1b1b1b1b1#w.d..aPa3bEaDaDbA#xaA.wbZ.#.#.ibp#B#X#Y#Y#Y#Ybg#Ybg#Ybg#Y#Ybf#Ybcblbp.b.#.#bYbwaLaLbL.r.d..aJ#bb1b1b1b1b1b1b1b1b1b1b1b1b1b1b1b1b1b1b1b1b1",
"b1b1b1b1b1b1b1b1b1b1b1b1b1b1b1b1b1b1b1b1b1b1#Z#s.....pa3.xa4#a#aayaAa1aUbY.#.#.#.#bebYaGaGaGaGaG#kaGbYbe.#.#.#.#.gaxaMaLaKbLbuaJ....aX#mb1b1b1b1b1b1b1b1b1b1b1b1b1b1b1b1b1b1b1b1b1b1",
"b1b1b1b1b1b1b1b1b1b1b1b1b1b1b1b1b1b1b1b1b1b1b1b1a#aX.....Eaz#UaVa4#a#aayayayaNax.fbY.h.#.#.#.#.#.#.#.hbYbX.easaLaLaLbL.rbN.d....#sadb1b1b1b1b1b1b1b1b1b1b1b1b1b1b1b1b1b1b1b1b1b1b1b1",
"b1b1b1b1b1b1b1b1b1b1b1b1b1b1b1b1b1b1b1b1b1b1b1b1b1b1ad.t.d...daOava3a3aTaTaTaVaVaV.UaV.UbTbTbTbTaLaLaLaLaLaw.r.r.rbu.dbU...daX#Zb1b1b1b1b1b1b1b1b1b1b1b1b1b1b1b1b1b1b1b1b1b1b1b1b1b1",
"b1b1b1b1b1b1b1b1b1b1b1b1b1b1b1b1b1b1b1b1b1b1b1b1b1b1b1b1b1#7#s......aJ.pavbzbzbzawbzavavavav.ravavav.raS.TbuaJ.d......#s#7b1b1b1b1b1b1b1b1b1b1b1b1b1b1b1b1b1b1b1b1b1b1b1b1b1b1b1b1b1",
"b1b1b1b1b1b1b1b1b1b1b1b1b1b1b1b1b1b1b1b1b1b1b1b1b1b1b1b1b1b1b1ad#A.t.E........aJaJaO.E.E.E.EaJ.EaJ.d.d........aJ#s#A#Zb1b1b1b1b1b1b1b1b1b1b1b1b1b1b1b1b1b1b1b1b1b1b1b1b1b1b1b1b1b1b1",
"b1b1b1b1b1b1b1b1b1b1b1b1b1b1b1b1b1b1b1b1b1b1b1b1b1b1b1b1b1b1b1b1b1b1b1#3a##b#w.p.E...........d.....EaO#w#wa##3b1b1b1b1b1b1b1b1b1b1b1b1b1b1b1b1b1b1b1b1b1b1b1b1b1b1b1b1b1b1b1b1b1b1b1",
"b1b1b1b1b1b1b1b1b1b1b1b1b1b1b1b1b1b1b1b1b1b1b1b1b1b1b1b1b1b1b1b1b1b1b1b1b1b1b1b1b1b1b1b1b1b1b1b1b1b1b1b1b1b1b1b1b1b1b1b1b1b1b1b1b1b1b1b1b1b1b1b1b1b1b1b1b1b1b1b1b1b1b1b1b1b1b1b1b1b1",
"b1b1b1b1b1b1b1b1b1b1b1b1b1b1b1b1b1b1b1b1b1b1b1b1b1b1b1b1b1b1b1b1b1b1b1b1b1b1b1b1b1b1b1b1b1b1b1b1b1b1b1b1b1b1b1b1b1b1b1b1b1b1b1b1b1b1b1b1b1b1b1b1b1b1b1b1b1b1b1b1b1b1b1b1b1b1b1b1b1b1",
};
