/* XPM */
static char *on[] = {
/* width height num_colors chars_per_pixel */
"    32    32       48            1",
/* colors */
". c #f8e0d8",
"# c #f8e0d0",
"a c #f8e0c0",
"b c #f8e0b8",
"c c #f8d4d0",
"d c #f8d4c0",
"e c #f8d4b8",
"f c #f8e0e0",
"g c #f8e0d8",
"h c #f8e0d0",
"i c #f8e0c0",
"j c #f8e0b8",
"k c #f8d4d0",
"l c #f8d4c0",
"m c #f8d4b8",
"n c #f8d4b0",
"o c #f8ccc0",
"p c #f8ccb8",
"q c #f8ccb0",
"r c #f8c4b8",
"s c #f8c4b0",
"t c #f0e0d0",
"u c #f0e0c0",
"v c #f0e0b8",
"w c #f0d4d0",
"x c #f0d4c0",
"y c #f0d4b8",
"z c #f0d4b0",
"A c #f0d4a8",
"B c #f0ccc0",
"C c #f0ccb8",
"D c #f0ccb0",
"E c #f0cca8",
"F c #f0cca0",
"G c #f0c4b8",
"H c #f0c4b0",
"I c #f0c4a8",
"J c #f0c4a0",
"K c #e8e0b8",
"L c #e8d4b8",
"M c #e8ccc0",
"N c #e8ccb8",
"O c #e8ccb0",
"P c #e8cca8",
"Q c #e8c4b8",
"R c #e8c4b0",
"S c #e8c4a8",
"T c #e8c4a0",
/* pixels */
"h#kyGCmmmmvmvyjjyyCpjvjvuhhivjia",
"LmymvvyllyyithLvLyvjvpihjjyli#kg",
"CDCQyyCCGyikyCCCyLyNMxyyyLmulyRS",
"NqmvjyCyvuimLLymmCpmmjmCvyyCOAGm",
"jvliivvyymiyjCCpvmjmjvjjmyyCCvij",
"uvyvCiiujixCGmyjymvmvljyCCCvvuuj",
"yyyllBxmONyjyxukxBlxlBCrCjiljkwK",
"pyCCyQSIDDmymCyyCGCRFIzCLmmyyOTT",
"yyjvmvyjuuvxlijvjmmjjjjeijjyjDmj",
"vyvjuiyjjhllliiixljjullylmLjaivv",
"vihhivuuhiuhwxCGCvhkvvyyCyujvjuj",
"CopCCxCCpmxCQCCmxBmLCCCyyyCpCCxy",
"ypmmyyyyyvyyLCyCCRDmyyvymCyvyjpv",
"vjvjvjlujiiiyyCyDjjKjjmymmvjvyvb",
"jyliiiyyxiijymyCpmymNCBjuKimmliv",
"mwhipyliavjjvyCCvmyyuuxmyijyjvmy",
"yjlDNGvmKmmyNLyyCCCCHRSyylyyCCQG",
"jmCsOyyGymyCyjyQyryDnmCjvmyjmmyy",
"NHHyyCyjyjmyCymyyiiuvvuyxlikyyjy",
"mmCymmyymyrCyvyyyimuyyxhhuCmjyQE",
"GCmCyyjmpmmmmvxxliyylkllCmyDSCmy",
"yyCNNNSPCyCCmyByCyyCMPDDOTTRJRTL",
"yppmyCCmyyylijypjvmymCmmDyvmnmmj",
"vymCymvvjlvjyymmvmmCmmvvjyppmiyy",
"CCvmjpjyxlymyyCyyNmjmyvyCyivyyyv",
"CpyyNNyyyyOOCmyvyvCpmCyyyOyLCCCC",
"pypNmxilypDzppymyxdmCyvymDpyLyyy",
"yydhlxyjmyyluvlltiumjyyymjvvjlku",
"cgljjyvpiilyihxyyjvyyyliiiikjyml",
"xymNpihiLChlyyymmyCylixvxiyCjl.t",
"NPREmxyCGCyGryCCCCyCCCLmCypLyLmm",
"mygfxyzHbypvjvvyjKjrHRbjvLjbtvbe",
};
